<?xml version="1.0" encoding="UTF-8"?>
<svg width="56px" height="69px" viewBox="0 0 56 69" version="1.1" xmlns="http://www.w3.org/2000/svg" xmlns:xlink="http://www.w3.org/1999/xlink">
    <!-- Generator: Sketch 52.4 (67378) - http://www.bohemiancoding.com/sketch -->
    <title>file copy 2</title>
    <desc>Created with Sketch.</desc>
    <g id="Page-1" stroke="none" stroke-width="1" fill="none" fill-rule="evenodd">
        <g id="iPhone-8-Copy-4" transform="translate(-126.000000, -172.000000)">
            <g id="file-copy-2" transform="translate(127.000000, 173.000000)">
                <path d="M11.7888056,1.69261066 L1.82311156,11.3563743 C0.657746496,12.4864323 -1.08697548e-15,14.0404624 -8.8817842e-16,15.6637636 L0,61 C4.05812251e-16,64.3137085 2.6862915,67 6,67 L48,67 C51.3137085,67 54,64.3137085 54,61 L54,6 C54,2.6862915 51.3137085,-6.08718376e-16 48,0 L15.9656941,9.76996262e-14 C14.4063485,1.02141005e-13 12.9082571,0.607075241 11.7888056,1.69261066 Z" id="Path-2" stroke="#979797" stroke-width="2" fill="#FFFFFF" transform="translate(27.000000, 33.500000) scale(-1, 1) translate(-27.000000, -33.500000) "></path>
                <text id="SYSTEM" font-family="PingFangSC-Semibold, PingFang SC" font-size="10" font-weight="500" letter-spacing="0.555555582" fill="#5A5A5A" fill-opacity="0.953577899">
                    <tspan x="5" y="38">SYSTEM</tspan>
                </text>
            </g>
        </g>
    </g>
</svg>