<?xml version="1.0" encoding="UTF-8"?>
<svg width="46px" height="44px" viewBox="0 0 46 44" version="1.1" xmlns="http://www.w3.org/2000/svg" xmlns:xlink="http://www.w3.org/1999/xlink">
    <!-- Generator: Sketch 52.4 (67378) - http://www.bohemiancoding.com/sketch -->
    <title>folder</title>
    <desc>Created with Sketch.</desc>
    <g id="Page-1" stroke="none" stroke-width="1" fill="none" fill-rule="evenodd">
        <g id="主页面-copy" transform="translate(-43.000000, -177.000000)">
            <g id="folder" transform="translate(43.000000, 177.000000)">
                <polygon id="Path" fill="#C3CCDB" points="0 44 0 12.9303965 18.7685575 9.5753304 20.703672 2.06519824 39 0 38.8999079 36.5614404"></polygon>
                <path d="M14.5078056,7.77336308 L2.32112422,9.93760521 C1.51090771,10.2833944 1.00113624,9.12453335 1.00113624,8.12143321 L1.00113624,7.20867438 C0.970561129,6.24670453 1.5607755,5.43462834 2.32112422,5.39250238 L14.424075,3.57093421 C15.1854249,3.61304502 15.7760342,4.42705843 15.744063,5.39022143 L15.744063,6.30298026 C15.744063,7.30919562 15.1505609,8.11915226 14.5078056,7.77336308 Z" id="Path" fill="#C3CCDB"></path>
                <polygon id="Path" fill="#8E96A3" points="3 44 3 12.9303965 21.7685575 9.5753304 23.703672 2.06519824 42 0 41.8999079 36.5614404"></polygon>
                <path d="M18.5078013,7.77336308 L6.32112381,9.93760521 C5.51090756,10.2833944 5.00113623,9.12453335 5.00113623,8.12143321 L5.00113623,7.20867438 C4.97056114,6.24670453 5.56077533,5.43462834 6.32112381,5.39250238 L18.4265335,3.57093421 C19.1869061,3.61470742 19.7760515,4.42822128 19.7440584,5.39022143 L19.7440584,6.30298026 C19.7440584,7.30919562 19.1530192,8.11915226 18.5078013,7.77336308 Z" id="Path" fill="#8E96A3"></path>
                <polygon id="Path" fill="#646B76" points="7 44 7 12.9303965 25.7685575 9.5753304 27.703672 2.06519824 46 0 45.8999079 36.5614404"></polygon>
                <path d="M8.23235543,10 C7.49368689,10 7.0012412,8.89340605 7.0012412,7.93554784 L7.0012412,7.06395637 C6.96927435,6.14587633 7.5586775,5.36990758 8.31853342,5.32969757 L20.4266845,3.57093421 C20.7920595,3.59023521 21.1361202,3.7841152 21.3831653,4.10991613 C21.6302104,4.43571706 21.7599997,4.86674638 21.7439768,5.30816773 L21.7439768,6.1797592 C21.7759436,7.09783924 21.1865405,7.87380799 20.4266845,7.914018 L8.23235543,10 Z" id="Path" fill="#646B76"></path>
            </g>
        </g>
    </g>
</svg>