<svg id="我的电脑" xmlns="http://www.w3.org/2000/svg" viewBox="0 0 200 200"><defs><style>.cls-1{fill:#c3ccdb;}.cls-2{fill:#8e96a3;}.cls-3{fill:#646b76;}</style></defs><title>画板 1</title><path class="cls-1" d="M155.67,24.76,28.23,39.49A13.64,13.64,0,0,0,14.59,53.13v78.06a13.64,13.64,0,0,0,13.64,13.64l57.21-6.61v19.87l-24.18,2.42a5.76,5.76,0,0,0-5.76,5.76v6.35a5.76,5.76,0,0,0,5.76,5.76L127.49,171a5.76,5.76,0,0,0,5.76-5.76V158.9a5.76,5.76,0,0,0-5.76-5.76l-25.12,3.25V136.26l53.3-6.16a13.64,13.64,0,0,0,13.64-13.64V38.4A13.64,13.64,0,0,0,155.67,24.76Zm8.62,88.68a12.43,12.43,0,0,1-12.53,12.34L34.65,139.11a12.43,12.43,0,0,1-12.54-12.33V56.15A12.44,12.44,0,0,1,34.65,43.81L151.76,30.48a12.43,12.43,0,0,1,12.53,12.33Z"/><path class="cls-2" d="M165,24.76,37.53,39.49A13.64,13.64,0,0,0,23.9,53.13v78.06a13.63,13.63,0,0,0,13.63,13.64l57.22-6.61v19.87l-24.18,2.42a5.76,5.76,0,0,0-5.76,5.76v6.35a5.76,5.76,0,0,0,5.76,5.76L136.8,171a5.76,5.76,0,0,0,5.76-5.76V158.9a5.76,5.76,0,0,0-5.76-5.76l-25.12,3.25V136.26L165,130.1a13.64,13.64,0,0,0,13.64-13.64V38.4A13.63,13.63,0,0,0,165,24.76Zm8.63,88.68a12.44,12.44,0,0,1-12.54,12.34L44,139.11a12.43,12.43,0,0,1-12.53-12.33V56.15A12.43,12.43,0,0,1,44,43.81L161.06,30.48A12.43,12.43,0,0,1,173.6,42.81Z"/><path class="cls-3" d="M174.28,24.76,46.84,39.49A13.64,13.64,0,0,0,33.2,53.13v78.06a13.64,13.64,0,0,0,13.64,13.64l57.22-6.61v19.87l-24.18,2.42a5.76,5.76,0,0,0-5.76,5.76v6.35a5.76,5.76,0,0,0,5.76,5.76L146.1,171a5.76,5.76,0,0,0,5.77-5.76V158.9a5.76,5.76,0,0,0-5.77-5.76L121,156.39V136.26l53.29-6.16a13.64,13.64,0,0,0,13.64-13.64V38.4A13.64,13.64,0,0,0,174.28,24.76Zm8.62,88.68a12.43,12.43,0,0,1-12.53,12.34L53.26,139.11a12.43,12.43,0,0,1-12.53-12.33V56.15A12.43,12.43,0,0,1,53.26,43.81L170.37,30.48A12.43,12.43,0,0,1,182.9,42.81Z"/></svg>