<svg id="文件" xmlns="http://www.w3.org/2000/svg" viewBox="0 0 200 200"><defs><style>.cls-1{fill:#c3ccdb;}.cls-2{fill:#8e96a3;}.cls-3{fill:#646b76;}</style></defs><title>folder</title><polygon class="cls-1" points="163.34 147.82 11.77 157.33 11.77 69.17 84.9 59.65 92.44 38.34 163.73 32.48 163.34 147.82"/><path class="cls-1" d="M70.39,53.49,19.87,59.06c-3.29,1.11-5.36-2.61-5.36-5.83V50.3a5.61,5.61,0,0,1,5.36-5.83L70.05,40a5.61,5.61,0,0,1,5.36,5.84v2.93C75.41,52,73,54.6,70.39,53.49Z"/><polygon class="cls-2" points="175.59 147.82 24.02 157.33 24.02 69.17 97.15 59.65 104.69 38.34 175.98 32.48 175.59 147.82"/><path class="cls-2" d="M81.64,53.49,31.12,59.06c-3.29,1.11-5.36-2.61-5.36-5.83V50.3a5.61,5.61,0,0,1,5.36-5.83L81.31,40a5.61,5.61,0,0,1,5.35,5.84v2.93C86.66,52,84.26,54.6,81.64,53.49Z"/><polygon class="cls-3" points="187.84 147.82 36.27 157.33 36.27 69.17 109.4 59.65 116.94 38.34 188.23 32.48 187.84 147.82"/><path class="cls-3" d="M92.56,54.6,42,60.17c-3,0-5-3.72-5-6.94V50.3a5.6,5.6,0,0,1,5.35-5.83L92.56,40a5.6,5.6,0,0,1,5.35,5.84v2.93A5.6,5.6,0,0,1,92.56,54.6Z"/></svg>