<svg id="编程" xmlns="http://www.w3.org/2000/svg" viewBox="0 0 200 200"><defs><style>.cls-1{fill:#c3ccdb;}.cls-2{fill:#8e96a3;}.cls-3{fill:#646b76;}.cls-4{fill:#fff;}</style></defs><title>keyboard</title><path class="cls-1" d="M96.11,68.07c1.2-6-3.19-11.24-6.18-15.94-3.21-5-7.43-9.08-13.56-10.06s-12,1.84-17.35,4.72A89.3,89.3,0,0,1,48.4,52c-3.9,1.49-7.93,2.59-11.95,3.69a.2.2,0,0,0,.11.39c6.17-1.69,12.29-3.46,18-6.43s11.38-6.88,18-7.35a18,18,0,0,1,16.11,8.47C91.79,55.71,97,61.71,95.72,68c0,.25.33.35.39.1Z"/><path class="cls-2" d="M103.85,68.43c1.22-5.92-2.53-11.48-5.47-16.29-3.1-5.07-7.48-9.1-13.55-10.07s-12,1.84-17.35,4.72A89.3,89.3,0,0,1,56.86,52c-3.9,1.49-7.93,2.59-12,3.69a.2.2,0,0,0,.11.39c6.17-1.69,12.29-3.46,18-6.43s11.38-6.88,18-7.35a18,18,0,0,1,16.11,8.47c3.22,5,7.68,11.28,6.38,17.55,0,.25.33.35.39.1Z"/><path class="cls-1" d="M160.08,142.82,24.54,151.28a8.91,8.91,0,0,1-8.91-8.91V79.55a8.91,8.91,0,0,1,8.91-8.91l135.54-8.46A8.91,8.91,0,0,1,169,71.09v62.82A8.91,8.91,0,0,1,160.08,142.82Z"/><polygon class="cls-1" points="128.85 125.4 51.45 130.62 51.45 113.48 128.85 108.26 128.85 125.4"/><polygon class="cls-1" points="47.29 100.27 29.67 101.35 29.67 84.07 47.29 82.99 47.29 100.27"/><polygon class="cls-1" points="72.94 98.65 55.32 99.73 55.32 82.45 72.94 81.37 72.94 98.65"/><polygon class="cls-1" points="98.44 97.14 80.83 98.22 80.83 80.94 98.44 79.86 98.44 97.14"/><polygon class="cls-1" points="124.24 95.5 106.62 96.58 106.62 79.3 124.24 78.22 124.24 95.5"/><polygon class="cls-1" points="149.77 93.93 132.15 95.01 132.15 77.73 149.77 76.65 149.77 93.93"/><polygon class="cls-1" points="48.01 130.87 30.39 131.95 30.39 114.67 48.01 113.59 48.01 130.87"/><polygon class="cls-1" points="150.49 124.53 132.87 125.61 132.87 108.33 150.49 107.25 150.49 124.53"/><path class="cls-2" d="M168.54,142.82,33,151.28a8.91,8.91,0,0,1-8.91-8.91V79.55A8.91,8.91,0,0,1,33,70.64l135.54-8.46a8.91,8.91,0,0,1,8.91,8.91v62.82A8.91,8.91,0,0,1,168.54,142.82Z"/><polygon class="cls-2" points="137.31 125.4 59.91 130.62 59.91 113.48 137.31 108.26 137.31 125.4"/><polygon class="cls-2" points="55.75 100.27 38.13 101.35 38.13 84.07 55.75 82.99 55.75 100.27"/><polygon class="cls-2" points="81.4 98.65 63.78 99.73 63.78 82.45 81.4 81.37 81.4 98.65"/><polygon class="cls-2" points="106.9 97.14 89.29 98.22 89.29 80.94 106.9 79.86 106.9 97.14"/><polygon class="cls-2" points="132.7 95.5 115.08 96.58 115.08 79.3 132.7 78.22 132.7 95.5"/><polygon class="cls-2" points="158.23 93.93 140.61 95.01 140.61 77.73 158.23 76.65 158.23 93.93"/><polygon class="cls-2" points="56.47 130.87 38.85 131.95 38.85 114.67 56.47 113.59 56.47 130.87"/><polygon class="cls-2" points="158.95 124.53 141.33 125.61 141.33 108.33 158.95 107.25 158.95 124.53"/><path class="cls-3" d="M177,142.82,41.46,151.28a8.91,8.91,0,0,1-8.91-8.91V79.55a8.91,8.91,0,0,1,8.91-8.91L177,62.18a8.91,8.91,0,0,1,8.91,8.91v62.82A8.91,8.91,0,0,1,177,142.82Z"/><polygon class="cls-4" points="145.77 125.4 68.37 130.62 68.37 113.48 145.77 108.26 145.77 125.4"/><polygon class="cls-4" points="64.21 100.27 46.59 101.35 46.59 84.07 64.21 82.99 64.21 100.27"/><polygon class="cls-4" points="89.86 98.65 72.24 99.73 72.24 82.45 89.86 81.37 89.86 98.65"/><polygon class="cls-4" points="115.36 97.14 97.75 98.22 97.75 80.94 115.36 79.86 115.36 97.14"/><polygon class="cls-4" points="141.16 95.5 123.54 96.58 123.54 79.3 141.16 78.22 141.16 95.5"/><polygon class="cls-4" points="166.69 93.93 149.07 95.01 149.07 77.73 166.69 76.65 166.69 93.93"/><polygon class="cls-4" points="64.93 130.87 47.31 131.95 47.31 114.67 64.93 113.59 64.93 130.87"/><polygon class="cls-4" points="167.41 124.53 149.79 125.61 149.79 108.33 167.41 107.25 167.41 124.53"/><path class="cls-3" d="M108.38,68.17C111,57,105.34,43.68,92.88,42c-6.22-.84-12,2.1-17.3,5a84.91,84.91,0,0,1-10.69,5.18c-3.77,1.41-7.65,2.47-11.52,3.53a.2.2,0,0,0,.11.39c6-1.65,12-3.37,17.63-6.24,5.3-2.72,10.46-6.26,16.43-7.31a17.64,17.64,0,0,1,16.5,6.2c4.5,5.33,5.5,12.68,4,19.32-.06.26.33.36.38.11Z"/></svg>